<svg width="28" height="28" viewBox="0 0 28 28" fill="none" xmlns="http://www.w3.org/2000/svg">
  <circle cx="14" cy="14" r="14" fill="#25D366"/>
  <path d="M10.8 7.8c-.3 0-.7.2-1 .4-.3.3-.7.9-.7 1.6 0 .6.2 1.2.3 1.4.2.3 1.3 2.4 3.1 3.4 1.9 1.1 1.9.8 2.2.8.3 0 1.1-.4 1.3-.8.2-.4.2-.8.2-.9 0-.1 0-.2-.2-.3-.2-.2-1.1-.6-1.3-.6-.2 0-.3 0-.5.3-.2.2-.6.7-.7.8-.2.1-.3 0-.5-.1-.2-.2-.9-.3-1.6-1.1-.6-.7-1-1.5-1.2-1.7-.1-.2 0-.3.1-.5.1-.2.3-.3.4-.5.1-.2.1-.3 0-.5-.1-.2-.9-2.2-1-2.3-.2-.1-.3-.2-.5-.2h-.4Z" fill="#fff"/>
</svg>

